<?xml version="1.0" standalone="no"?>
<!DOCTYPE svg PUBLIC "-//W3C//DTD SVG 20010904//EN"
 "http://www.w3.org/TR/2001/REC-SVG-20010904/DTD/svg10.dtd">
<svg version="1.0" xmlns="http://www.w3.org/2000/svg"
 width="45.00pt" height="45.00pt" viewBox="0 0 959.000000 959.000000"
 preserveAspectRatio="xMidYMid meet">
<metadata>
Created by potrace 1.15, written by Peter Selinger 2001-2017
</metadata>
<g transform="translate(0.000000,959.000000) scale(0.100000,-0.100000)"
fill="#e30d34" stroke="none">
<path d="M4740 8986 c-19 -13 -62 -38 -95 -55 -33 -18 -98 -55 -145 -83 -47
-27 -103 -60 -125 -72 -47 -27 -213 -123 -235 -136 -97 -59 -151 -90 -155 -90
-3 0 -40 -22 -83 -48 -42 -26 -85 -51 -94 -54 -9 -4 -53 -29 -98 -57 -45 -28
-84 -51 -86 -51 -2 0 -59 -32 -127 -71 -67 -40 -140 -82 -162 -94 -102 -56
-210 -121 -213 -127 -2 -5 -8 -8 -14 -8 -6 0 -49 -23 -97 -51 -47 -28 -126
-75 -176 -104 -49 -28 -124 -72 -165 -96 -41 -24 -95 -54 -120 -68 -25 -13
-46 -28 -48 -32 -2 -5 -9 -9 -16 -9 -6 0 -60 -29 -120 -65 -59 -36 -109 -65
-110 -65 -2 0 -59 -32 -127 -72 -68 -39 -141 -80 -161 -92 -30 -17 -92 -54
-240 -141 -9 -5 -45 -25 -80 -44 -35 -18 -70 -40 -79 -47 -8 -8 -19 -14 -22
-14 -4 0 -36 -18 -72 -40 -36 -22 -67 -40 -70 -40 -2 0 -44 -24 -92 -53 -48
-29 -105 -61 -125 -72 -20 -10 -39 -28 -42 -39 -3 -12 -6 -962 -6 -2113 l0
-2092 57 -34 c32 -19 81 -47 108 -63 28 -15 52 -30 55 -33 3 -4 34 -22 70 -40
36 -19 67 -38 68 -43 2 -4 7 -8 12 -8 4 0 64 -32 132 -71 67 -39 139 -80 158
-91 32 -18 135 -78 170 -98 109 -64 174 -100 181 -100 5 0 9 -4 9 -10 0 -5 5
-10 10 -10 6 0 44 -20 84 -45 41 -25 78 -45 81 -45 4 0 21 -10 38 -22 18 -13
61 -39 97 -58 36 -20 80 -44 98 -55 143 -85 219 -128 232 -133 8 -3 29 -16 46
-29 17 -13 34 -23 37 -23 4 0 47 -25 97 -55 50 -30 93 -55 95 -55 3 0 26 -13
52 -29 27 -16 71 -42 99 -58 48 -26 312 -178 372 -214 90 -53 275 -159 278
-159 3 0 103 -58 154 -90 17 -11 130 -76 210 -121 30 -17 80 -46 110 -64 55
-33 70 -42 185 -105 33 -18 67 -39 75 -45 8 -7 43 -27 78 -45 34 -18 65 -36
68 -41 11 -18 56 -8 112 23 31 17 66 36 77 42 11 6 34 21 52 34 17 12 34 22
38 22 4 0 33 15 64 34 31 19 81 48 111 65 75 43 185 106 245 142 28 16 59 34
70 39 11 6 43 24 70 40 28 17 59 35 70 40 11 6 58 33 105 62 47 28 108 63 135
78 28 15 66 37 85 49 19 11 53 30 75 42 22 12 54 31 70 43 17 12 48 30 70 41
22 11 63 34 90 51 49 30 114 67 225 127 30 17 57 33 60 36 5 6 31 21 112 66
21 11 85 48 142 82 58 35 110 63 116 63 5 0 10 5 10 10 0 6 5 10 10 10 6 0 40
18 76 40 36 22 67 40 69 40 3 0 128 73 200 117 11 7 29 16 41 22 12 5 67 37
123 70 57 34 106 61 110 61 4 0 25 13 47 30 21 16 42 30 46 30 4 0 37 18 73
40 36 22 68 40 70 40 3 0 34 17 68 38 35 21 70 41 77 45 8 4 29 15 45 26 55
33 277 161 281 161 2 0 37 21 79 46 l75 45 0 2105 0 2104 -57 37 c-32 21 -71
45 -88 54 -16 9 -46 26 -65 38 -19 11 -42 24 -50 28 -8 4 -43 24 -78 45 -34
21 -64 38 -67 38 -3 0 -34 18 -70 40 -36 22 -67 40 -70 40 -3 0 -33 17 -67 38
-35 21 -83 50 -108 64 -25 14 -87 49 -138 79 -119 70 -114 67 -202 117 -86 49
-152 88 -195 113 -37 22 -124 72 -190 109 -27 15 -102 58 -165 95 -63 37 -175
102 -248 144 -73 42 -145 83 -161 92 -109 65 -428 249 -481 279 -36 20 -84 48
-107 63 -24 15 -47 27 -52 27 -5 0 -16 6 -23 13 -11 10 -31 22 -123 71 -11 6
-22 13 -25 16 -7 7 -38 25 -102 60 -32 17 -97 54 -145 83 -49 29 -119 71 -158
92 -38 22 -78 44 -87 50 -9 5 -29 17 -45 26 -15 8 -84 48 -152 87 -68 40 -131
72 -140 71 -9 0 -32 -10 -51 -23z m130 -1406 c28 -16 54 -30 57 -30 4 0 14 -6
22 -14 9 -8 36 -25 61 -39 25 -13 133 -75 240 -137 107 -62 250 -145 318 -184
67 -39 151 -87 186 -106 35 -19 70 -40 77 -45 8 -6 32 -20 54 -30 22 -11 42
-23 43 -27 2 -5 9 -8 15 -8 7 0 25 -11 42 -24 26 -21 28 -26 16 -40 -12 -14
-105 -71 -255 -154 -22 -13 -70 -40 -106 -61 -36 -21 -114 -66 -175 -101 -60
-35 -154 -90 -208 -122 -54 -32 -100 -58 -102 -58 -3 0 -34 -18 -70 -40 -36
-22 -67 -40 -69 -40 -11 0 -191 -112 -198 -122 -4 -7 -8 -957 -8 -2110 0
-1337 -3 -2099 -10 -2103 -11 -7 -65 20 -167 81 -40 24 -75 44 -79 44 -3 0
-18 8 -32 18 -15 11 -52 32 -82 49 -63 34 -158 89 -180 103 -8 5 -33 19 -55
31 -22 12 -42 25 -45 28 -3 4 -16 12 -30 18 -31 15 -103 56 -200 115 -41 25
-102 60 -135 77 -33 18 -98 55 -145 84 l-85 52 -3 1393 c-1 765 -4 1392 -7
1392 -13 0 -113 -55 -250 -137 -11 -7 -42 -25 -70 -41 -27 -16 -95 -55 -150
-87 -55 -32 -120 -69 -145 -83 -25 -14 -74 -42 -109 -64 -34 -21 -65 -38 -67
-38 -2 0 -44 -25 -94 -55 -50 -30 -93 -55 -97 -55 -3 0 -34 -18 -69 -40 -35
-22 -68 -40 -73 -40 -4 0 -14 -7 -21 -15 -17 -21 -47 -19 -59 4 -12 21 -14
1305 -3 1360 8 35 28 50 197 146 22 12 63 35 90 52 28 16 57 32 65 36 8 4 29
16 45 27 17 11 48 29 70 41 22 11 78 43 125 70 47 28 110 64 140 81 30 17 67
39 81 49 15 10 37 23 50 29 13 6 33 16 44 23 70 43 147 87 150 87 4 0 92 51
155 90 8 5 33 19 55 31 22 11 42 24 45 28 3 3 16 12 30 19 14 6 57 30 95 52
39 22 77 43 85 47 8 3 29 17 46 30 17 13 34 23 37 23 4 0 41 20 83 45 41 25
78 45 80 45 2 0 40 23 84 50 44 28 84 50 89 50 5 0 16 6 23 13 18 16 40 29
113 68 68 36 228 128 295 170 57 37 87 36 150 -1z m2368 -2780 c1 -999 -1
-1407 -9 -1416 -9 -11 -125 -80 -289 -172 -25 -14 -73 -43 -108 -64 -34 -21
-65 -38 -68 -38 -3 0 -28 -15 -57 -33 -29 -18 -72 -43 -97 -56 -25 -13 -47
-26 -50 -30 -5 -6 -49 -31 -105 -59 -16 -8 -43 -24 -58 -35 -16 -10 -58 -35
-95 -55 -37 -19 -95 -52 -129 -74 -35 -21 -67 -38 -72 -38 -5 0 -11 -3 -13 -7
-1 -5 -18 -16 -36 -25 -24 -13 -34 -14 -37 -5 -3 6 -4 644 -3 1416 l3 1404 65
40 c36 22 110 66 165 97 55 32 116 67 135 79 19 11 42 24 50 28 8 4 55 31 103
60 48 29 90 53 92 53 3 0 34 18 70 40 36 22 67 40 70 40 3 0 33 17 67 38 35
21 70 41 78 45 8 4 33 19 55 32 22 14 54 32 70 40 17 9 37 20 45 25 58 38 136
80 145 77 7 -3 11 -448 13 -1407z"/>
</g>
</svg>
